<?xml version="1.0" standalone="no"?>
<!DOCTYPE svg PUBLIC "-//W3C//DTD SVG 20010904//EN"
 "http://www.w3.org/TR/2001/REC-SVG-20010904/DTD/svg10.dtd">
<svg version="1.0" xmlns="http://www.w3.org/2000/svg"
 width="400.000000pt" height="400.000000pt" viewBox="0 0 400.000000 400.000000"
 preserveAspectRatio="xMidYMid meet">
<metadata>
Created by potrace 1.14, written by Peter Selinger 2001-2017
</metadata>
<g transform="translate(0.000000,400.000000) scale(0.100000,-0.100000)"
fill="#000000" stroke="none">
<path d="M0 2000 l0 -2000 2000 0 2000 0 0 883 c0 842 -1 883 -18 897 -48 39
-94 51 -107 29 -4 -6 -13 -8 -21 -5 -19 7 -18 -14 2 -29 21 -15 24 -103 3
-116 -12 -8 -12 -10 1 -19 13 -8 13 -13 0 -37 -9 -16 -25 -28 -37 -29 -11 -1
-24 -4 -30 -7 -5 -3 -14 3 -21 14 -8 12 -9 19 -1 19 5 0 7 5 4 10 -10 16 -38
12 -31 -5 6 -17 -9 -21 -19 -5 -3 5 3 20 14 32 12 12 21 30 21 39 0 12 6 16
19 12 14 -3 20 2 23 21 6 28 -6 36 -16 11 -3 -8 -13 -15 -21 -15 -9 0 -13 4
-10 10 3 5 1 10 -4 10 -6 0 -11 14 -11 30 0 26 -4 30 -27 30 -32 0 -44 -7 -59
-35 -16 -28 -44 -32 -44 -6 0 15 -6 21 -21 21 -17 0 -20 4 -16 23 8 29 -6 50
-29 45 -13 -2 -20 -13 -22 -36 -3 -26 -7 -32 -28 -32 -18 0 -24 5 -24 23 -1
20 -2 19 -17 -8 -20 -37 -31 -45 -67 -45 -20 0 -27 -4 -23 -14 4 -10 1 -13 -9
-9 -8 3 -14 -1 -14 -11 0 -24 -51 -21 -57 4 -6 22 -32 33 -57 24 -22 -8 -20
-20 7 -39 21 -16 20 -17 -27 -10 -33 4 -46 3 -41 -4 3 -7 -2 -11 -14 -11 -27
0 -26 5 3 37 14 15 23 30 20 34 -5 8 -64 -6 -73 -18 -7 -9 -48 -33 -57 -33 -3
0 -3 7 0 16 3 8 2 12 -3 9 -5 -3 -12 -1 -16 4 -10 17 -64 40 -67 29 -3 -7 -11
-7 -25 1 -43 22 -62 17 -233 -63 -42 -20 -73 -38 -91 -53 -8 -6 -28 -14 -46
-17 -17 -4 -44 -18 -60 -32 -50 -44 -56 -48 -77 -50 -42 -5 -76 -24 -76 -43 0
-10 -7 -24 -15 -31 -10 -8 -15 -9 -15 -2 0 19 -28 2 -33 -20 -4 -16 -10 -18
-29 -12 -37 12 -130 4 -158 -13 -25 -14 -30 -14 -64 2 -27 13 -34 20 -24 26
10 7 10 9 1 9 -15 0 -17 46 -3 55 16 10 12 43 -6 53 -14 8 -14 10 0 25 18 18
21 37 6 37 -5 0 -10 7 -10 15 0 23 -32 35 -54 20 -10 -8 -25 -11 -34 -8 -14 5
-15 3 -4 -8 6 -7 12 -18 12 -23 0 -12 -101 -20 -135 -12 -29 7 -69 65 -67 96
1 19 0 22 -8 10 -7 -11 -10 -5 -10 23 0 20 4 37 8 37 5 0 15 18 22 40 7 22 19
45 26 51 7 6 10 17 7 25 -4 10 0 12 13 8 11 -4 16 -3 12 1 -14 15 136 102 204
119 99 25 193 62 190 74 -1 7 5 12 13 12 8 0 15 5 15 11 0 7 -14 8 -40 4 -21
-4 -44 -4 -50 0 -14 9 21 48 73 81 45 29 47 50 6 59 -22 5 -28 10 -19 15 16
10 41 2 57 -17 10 -13 14 -10 26 14 17 32 10 58 -22 87 -11 11 -21 27 -21 37
0 10 -8 20 -17 23 -10 3 -1 3 19 2 47 -5 41 17 -12 44 -60 31 -149 41 -200 24
-23 -8 -51 -12 -62 -8 -11 3 -23 1 -27 -4 -4 -6 -12 -7 -20 -3 -13 8 47 30
199 71 41 11 129 35 195 54 66 19 165 44 220 56 55 13 147 38 205 57 58 19
179 52 270 75 91 22 173 44 182 49 17 9 17 25 0 70 -11 28 -107 129 -122 129
-5 0 -34 20 -63 44 -94 76 -190 135 -242 147 -27 6 -70 18 -95 26 -25 9 -63
19 -85 23 -22 5 -85 23 -140 40 -116 37 -143 42 -330 70 -77 12 -164 28 -194
36 -89 25 -427 194 -414 207 3 4 -2 7 -13 7 -14 0 -16 2 -5 9 9 6 10 11 2 15
-6 4 -16 4 -23 0 -7 -4 -8 -3 -4 4 4 7 15 12 24 13 10 0 12 3 5 5 -13 6 -8 27
17 64 15 22 15 29 4 55 -7 17 -13 53 -14 81 0 46 3 52 28 64 l27 12 -25 11
c-21 8 -22 11 -7 14 9 3 17 9 17 15 0 6 -10 8 -25 4 -14 -4 -25 -2 -25 4 0 7
-243 10 -735 10 l-735 0 0 -2000z m1830 435 c0 -7 -81 -27 -87 -21 -3 3 10 9
28 15 39 11 59 13 59 6z m-147 -42 c-7 -2 -21 -2 -30 0 -10 3 -4 5 12 5 17 0
24 -2 18 -5z m-376 -99 c-3 -3 -12 -4 -19 -1 -8 3 -5 6 6 6 11 1 17 -2 13 -5z
m-40 -10 c-3 -3 -12 -4 -19 -1 -8 3 -5 6 6 6 11 1 17 -2 13 -5z m915 -76 c-6
-6 -15 -8 -19 -4 -4 4 -1 11 7 16 19 12 27 3 12 -12z m-28 -17 c3 -4 -3 -16
-13 -26 -19 -16 -19 -16 -16 2 2 10 4 21 4 26 1 10 19 9 25 -2z m1523 -473
c-3 -8 -6 -5 -6 6 -1 11 2 17 5 13 3 -3 4 -12 1 -19z m-457 -68 c0 -5 -7 -7
-15 -4 -8 4 -15 8 -15 10 0 2 7 4 15 4 8 0 15 -4 15 -10z m-1197 -252 c20 -8
35 -17 31 -20 -3 -4 -22 1 -42 9 -20 9 -50 15 -65 14 -31 -2 -50 6 -42 18 5
10 63 -1 118 -21z m137 -14 c0 -8 -5 -12 -10 -9 -6 4 -8 11 -5 16 9 14 15 11
15 -7z m-59 -32 c-7 -2 -18 1 -23 6 -8 8 -4 9 13 5 13 -4 18 -8 10 -11z"/>
<path d="M2276 2145 c-11 -8 -15 -15 -9 -15 6 0 16 7 23 15 16 19 11 19 -14 0z"/>
<path d="M1923 1950 c-2 -23 14 -25 40 -6 24 19 21 26 -11 26 -21 0 -28 -5
-29 -20z"/>
<path d="M3502 1815 c0 -16 2 -22 5 -12 2 9 2 23 0 30 -3 6 -5 -1 -5 -18z"/>
<path d="M2035 1577 c-4 -10 -5 -21 -1 -24 10 -10 18 4 13 24 -4 17 -4 17 -12
0z"/>
</g>
</svg>
