<?xml version="1.0" encoding="utf-8"?>
<!-- Generator: Adobe Illustrator 28.3.0, SVG Export Plug-In . SVG Version: 6.00 Build 0)  -->
<svg version="1.1" id="Layer_1" xmlns="http://www.w3.org/2000/svg" xmlns:xlink="http://www.w3.org/1999/xlink" x="0px" y="0px"
	 viewBox="0 0 60 60" style="enable-background:new 0 0 60 60;" xml:space="preserve">
<style type="text/css">
	.st0{fill:#333333;}
</style>
<path class="st0" d="M20,6C12.3,6,6,12.3,6,20v20c0,7.7,6.3,14,14,14h20c7.7,0,14-6.3,14-14V20c0-7.7-6.3-14-14-14H20z M44,14
	c1.1,0,2,0.9,2,2s-0.9,2-2,2s-2-0.9-2-2S42.9,14,44,14z M30,18c6.6,0,12,5.4,12,12s-5.4,12-12,12s-12-5.4-12-12S23.4,18,30,18z
	 M30,22c-4.4,0-8,3.6-8,8s3.6,8,8,8s8-3.6,8-8S34.4,22,30,22z"/>
</svg>
