<?xml version="1.0" encoding="utf-8"?>
<!-- Generator: Adobe Illustrator 28.3.0, SVG Export Plug-In . SVG Version: 6.00 Build 0)  -->
<svg version="1.1" id="Layer_1" xmlns="http://www.w3.org/2000/svg" xmlns:xlink="http://www.w3.org/1999/xlink" x="0px" y="0px"
	 viewBox="0 0 60 60" style="enable-background:new 0 0 60 60;" xml:space="preserve">
<style type="text/css">
	.st0{fill:#333333;}
</style>
<path class="st0" d="M30,6C16.7,6,6,16.7,6,30c0,11.2,7.7,20.7,18.2,23.3c-0.1-0.3-0.2-0.7-0.2-1.2V48c-1,0-2.6,0-3,0
	c-1.6,0-3.1-0.7-3.8-2c-0.8-1.5-0.9-3.7-2.9-5.1c-0.6-0.5-0.1-1,0.5-0.9c1.2,0.3,2.3,1.2,3.2,2.4c1,1.3,1.4,1.5,3.2,1.5
	c0.9,0,2.2,0,3.4-0.2c0.7-1.7,1.8-3.2,3.2-3.9C19.8,39,16,35,16,29.6c0-2.3,1-4.6,2.7-6.5c-0.6-1.9-1.2-5.7,0.2-7.2
	c3.6,0,5.8,2.3,6.3,3c1.8-0.6,3.8-1,5.8-1c2.1,0,4,0.3,5.8,1c0.5-0.6,2.7-3,6.3-3c1.5,1.5,0.8,5.3,0.2,7.2c1.7,1.9,2.7,4.1,2.7,6.5
	c0,5.4-3.8,9.4-11.8,10.2c2.2,1.1,3.8,4.4,3.8,6.8v5.5c0,0.2,0,0.4-0.1,0.5C47.3,49.4,54,40.5,54,30C54,16.7,43.3,6,30,6z"/>
</svg>
